<svg version="1.0" xmlns="http://www.w3.org/2000/svg"  width="512.000000pt" height="512.000000pt" viewBox="0 0 512.000000 512.000000"  preserveAspectRatio="xMidYMid meet"> <g transform="translate(0.000000,512.000000) scale(0.100000,-0.100000)" stroke="none">
<path d="M732 5094 c-87 -43 -131 -118 -139 -235 l-6 -77 -136 -4 c-135 -3 -138 -4 -213 -41 -89 -44 -161 -116 -205 -205 l-28 -57 0 -1741 0 -1740 37 -75 c46 -93 112 -158 206 -202 l67 -32 391 -3 392 -3 4 -207 c4 -200 5 -209 32 -267 33 -72 93 -137 161 -173 l50 -27 1215 0 1215 0 50 27 c70 37 123 92 158 168 31 65 31 65 35 272 l4 207 392 3 392 3 75 37 c93 46 158 112 202 206 l32 67 3 1720 c2 1565 1 1724 -14 1770 -36 112 -120 205 -232 258 -63 30 -75 32 -203 35 l-136 4 -6 78 c-11 165 -107 260 -262 260 -78 0 -119 -15 -173 -65 -61 -54 -82 -106 -82 -198 l0 -77 -170 0 -170 0 0 77 c0 92 -21 144 -82 198 -54 50 -95 65 -173 65 -156 0 -251 -95 -262 -261 l-6 -79 -163 0 -164 0 0 63 c0 81 -14 127 -53 179 -98 131 -316 131 -414 0 -39 -52 -53 -98 -53 -179 l0 -63 -164 0 -163 0 -6 79 c-11 167 -106 261 -264 261 -81 0 -136 -24 -188 -82 -51 -56 -65 -95 -65 -183 l0 -75 -170 0 -170 0 0 77 c0 92 -21 144 -82 198 -55 50 -95 65 -176 65 -53 0 -79 -6 -120 -26z m175 -176 c23 -21 23 -25 23 -220 0 -110 -4 -207 -10 -217 -16 -31 -64 -45 -96 -29 -48 23 -54 47 -54 241 0 220 8 244 84 246 18 1 39 -8 53 -21z m838 16 c37 -15 45 -56 45 -241 0 -194 -6 -218 -54 -241 -32 -16 -80 -2 -96 29 -6 10 -10 107 -10 215 0 189 1 199 22 221 21 23 59 30 93 17z m870 -19 c25 -24 25 -25 25 -220 l0 -197 -29 -29 c-16 -16 -39 -29 -51 -29 -12 0 -35 13 -51 29 l-29 29 0 197 c0 195 0 196 25 220 15 16 36 25 55 25 19 0 40 -9 55 -25z m852 3 c23 -21 23 -25 23 -220 0 -110 -4 -207 -10 -217 -16 -31 -64 -45 -96 -29 -48 23 -54 47 -54 241 0 220 8 244 84 246 18 1 39 -8 53 -21z m838 16 c37 -15 45 -56 45 -241 0 -194 -6 -218 -54 241 -32 -16 -80 -2 -96 29 -6 10 -10 107 -10 215 0 189 1 199 22 221 21 23 59 30 93 17z m-3715 -387 c0 -177 131 -303 295 -282 75 9 151 57 190 119 26 43 30 61 34 133 l3 83 168 0 168 0 3 -83 c4 -72 8 -90 34 -133 39 -62 115 -110 190 -119 164 -21 295 105 295 282 l0 53 165 0 165 0 0 -67 c0 -123 72 -225 181 -257 66 -20 92 -20 158 0 109 32 181 134 181 257 l0 67 165 0 165 0 0 -53 c0 -177 131 -303 295 -282 75 9 151 57 190 119 26 43 30 61 34 133 l3 83 168 0 168 0 3 -83 c4 -72 8 -90 34 -133 39 -62 115 -110 190 -119 164 -21 295 105 295 282 l0 53 101 0 c124 0 167 -12 224 -62 75 -66 85 -100 85 -281 l0 -157 -2380 0 -2380 0 0 157 c0 182 10 215 85 281 58 51 89 60 218 61 l107 1 0 -53z m4350 -2053 c0 -1054 -3 -1437 -12 -1465 -16 -55 -73 -118 -132 -145 -51 -24 -54 -24 -413 -24 l-363 0 0 1058 c0 678 -4 1080 -10 1121 -14 85 -48 149 -110 204 -86 77 -127 87 -364 87 l-203 0 -7 42 c-9 57 -67 115 -124 124 l-42 7 0 65 c0 85 -30 141 -93 171 -42 20 -57 21 -507 21 -450 0 -465 -1 -507 -21 -63 -30 -93 -86 -93 -171 l0 -65 -42 -7 c-57 -9 -115 -67 -124 -124 l-7
-42 -203 0 c-237 0 -278 -10 -364 -87 -62 -55 -96 -119 -110 -204 -6 -41 -10 -443 -10 -1121 l0 -1058 -362 0 c-360 0 -363 0 -414 24 -59 27 -116 90 -132 145 -9 28 -12 411 -12 1465 l0 1426 2380 0 2380 0 0 -1426z m-1960 997 c0 -49 4 -101 10 -115 12 -33 59 -56 115 -56 l45 0 0 -80 0 -80 -590 0 -590 0 0 80 0 80 45 0 c56 0 103 23 115 56 6 14 10 66 10 115 l0 89 420 0 420 0 0 -89z m-1530 -1690 l0 -1348 23 -34 c12 -18 38 -44 56 -56 l34 -23 997 0 997 0 34 23 c18 12 44 38 56 56 l23 34 0 1348 0 1349 24 0 c28 0 82 -35 109 -71 10 -15 23 -46 28 -70 11 -60 11 -2644 -1 -2693 -11 -48 -36 -84 -80 -113 l-33 -23 -1157 0 -1157 0 -33 23 c-44 29 -69 65 -80 113 -12 49 -12 2633 -1 2693 5 24 18 55 28 70 27 36 81 71 109 71 l24 0 0 -1349z m340 1328 c0 -35 42 -98 80 -122 l35 -22 656 0 655 0 37 25 c39 27 77 85 77 119 0 20 5 21 80 21 l80 0 0 -1315 0 -1315 -930 0 -930 0 0 1315 0 1315 80 0 c75 0 80 -1 80 -21z"/> <path d="M1855 2733 c-62 -15 -86 -94 -44 -147 l20 -26 729 0 729 0 20 26 c30 38 28 94 -5 125 l-26 24 -701 1 c-386 1 -711 0 -722 -3z"/> <path d="M1815 2365 c-35 -34 -34 -93 1 -126 l26 -24 718 0 718 0 26 24 c35 33 36 92 1 126 l-24 25 -721 0 -721 0 -24 -25z"/> <path d="M1815 2025 c-38 -37 -35 -95 7 -130 31 -26 34 -27 149 -23 98 2 120 6 138 22 40 37 36 109 -8 143 -11 8 -58 12 -139 13 -117 0 -124 -1 -147 -25z"/> <path d="M2325 2025 c-33 -32 -33 -84 -1 -122 l24 -28 460 -3 460 -3 31 27 c41 34 44 92 6 129 l-24 25 -466 0 -466 0 -24 -25z"/> <path d="M1815 1685 c-28 -27 -34 -88 -12 -116 29 -38 45 -39 507 -39 l452 0 29 29 c38 38 40 91 4 126 l-24 25 -466 0 -466 0 -24 -25z"/> <path d="M3008 1680 c-26 -27 -30 -36 -25 -68 4 -22 17 -46 32 -59 24 -21 36 -23 136 -23 144 0 178 18 179 93 0 27 -7 45 -25 62 -23 24 -30 25 -145 25 l-122 0 -30 -30z"/> <path d="M1815 1345 c-19 -18 -25 -35 -25 -65 0 -30 6 -47 25 -65 23 -24 30 -25 145 -25 121 0 122 0 151 29 20 20 29 39 29 61 0 22 -9 41 -29 61 -29 29 -30 29 -151 29 -115 0 -122 -1 -145 -25z"/> <path d="M2344 1358 c-59 -28 -56 -132 5 -158 18 -7 169 -10 485 -8 l458 3 19 24 c28 34 25 96 -6 126 l-24 25 -458 -1 c-294 0 -466 -4 -479 -11z"/> <path d="M1835 1018 c-52 -30 -62 -102 -20 -143 l24 -25 466 0 466 0 24 26 c35 38 34 87 -4 125 l-29 29 -454 0 c-322 -1 -459 -4 -473 -12z"/> </g>
</svg>
