<svg version="1.0" xmlns="http://www.w3.org/2000/svg"  width="512.000000pt" height="512.000000pt" viewBox="0 0 512.000000 512.000000"  preserveAspectRatio="xMidYMid meet"> <g transform="translate(0.000000,512.000000) scale(0.100000,-0.100000)" stroke="none">
<path d="M22 5097 l-22 -23 0 -2516 0 -2517 26 -20 27 -21 1869 0 1869 0 24 25 25 24 0 236 0 235 615 0 616 0 24 25 c26 26 33 72 15 105 -14 26 -63 40 -136 40 l-64 0 0 1109 c0 1077 -1 1109 -19 1132 -19 24 -19 24 -285 27 l-267 3 -29 -30 -30 -29 0 -1106 0 -1106 -150 0 -150 0 0 883 0 884 -23 21 c-23 21 -30 22 -289 22 -247 0 -267 -1 -289 -19 l-24 -19 -3 -886 -2 -886 -150 0 -150 0 0 331 c0 196 -4 338 -10 349 -5 10 -24 23 -41 29 -42 14 -485 15 -526 1 -17 -6 -35 -22 -42 -36 -7 -17 -11 -128 -11 -349 l0 -325 -130 0 -130 0 0 504 c0 471 1 504 18 511 9 4 86 34 171 66 l154 60 31 -30 c51 -49 121 -75 201 -74 119 1 212 58 262 161 23 48 28 69 27 132 -1 45 -8 90 -18 113 -9 21 -13 44 -9 51 4 7 129 153 278 325 199 230 273 310 285 305 8 -4 48 -9 88 -12 171 -10 299 102 310 273 l4 72 208 107 208 106 51 -34 c147 -100 352 -48 433 109 30 57 36 167 13 236 -24 70 -101 149 -169 172 -200 68 -400 -64 -401 -264 l0 -66 -208 -108 c-192 -99 -211 -106 -233 -95 l-24 13 -1 356 c0 196 -4 378 -8 405 -8 48 -14 55 -503 542 l-494 494 -1395 0 -1396 0 -21 -23z m2688 -596 c0 -437 1 -460 19 -482 l19 -24 461 -3 461 -3 0 -304 0 -305 -37 0 c-84 0 -190 -77 -234 -169 -29 -60 -32 -165 -5 -237 l19 -51 -279 -321 c-253 -291 -280 -319 -299 -309 -36 19 -165 14 -216 -10 -97 -44 -161 -131 -176 -242 l-8 -55 -119 -48 c-65 -26 -127 -50 -137 -53 -18 -6 -19 17 -19 844 0 602 -3 857 -11 874 -22 49 -83 60 -126 23 l-28 -24 -3 -1499 c-1 -824 0 -1508 3 -1521 3 -12 14 -31 25 -42 20 -20 37 -20 835 -20 l815 0 0 -180 0 -180 -1755 0 -1755 0 0 2400 0 2400 1275 0 1275 0 0 -459z m505 -1 l340 -340 -343 0 -342 0 0 340 c0 187 1 340 3 340 1 0 155 -153 342 -340z m1462 -832 c31 -29 53 -70 53 -100 0 -61 -69 -128 -133 -128 -97 0 -158 113 -107 198 39 63 135 79 187 30z m-946 -471 c19 -12 42 -40 53 -61 16 -32 17 -44 7 -76 -21 -71 -90 -113 -158 -96 -14 4 -41 22 -60 41 -102 102 38 272 158 192z m1019 -1457 l0 -1050 -150 0 -150 0 0 1050 0 1050 150 0 150 0 0 -1050z m-930 -225 l0 -825 -150 0 -150 0 0 825 0 825 150 0 150 0 0 -825z m-1020 609 c92 -55 76 -201 -25 -234 -48 -16 -90 -4 -131 36 -57 58 -46 154 25 197 34 21 95 21 131 1z m90 -1164 l0 -280 -150 0 -150 0 0 280 0 280 150 0 150 0 0 -280z"/>
<path d="M552 3643 c-22 -9 -44 -63 -37 -94 10 -45 39 -59 125 -59 67 0 79 3 98 23 32 34 30 89 -4 116 -22 17 -40 21 -98 20 -39 0 -77 -3 -84 -6z"/> <path d="M965 3625 c-33 -32 -34 -83 -2 -113 23 -22 29 -22 339 -22 174 0 324 3 333 6 8 4 23 20 31 36 12 24 13 36 4 64 -6 19 -20 39 -30 44 -11 6 -145 10 -335 10 l-316 0 -24 -25z"/> <path d="M540 3090 c-28 -28 -36 -69 -19 -99 23 -41 56 -53 133 -48 61 4 73 8 93 31 25 30 29 53 12 89 -16 35 -49 47 -129 47 -56 0 -74 -4 -90 -20z"/> <path d="M965 3085 c-31 -30 -33 -83 -6 -116 l19 -24 327 0 327 0 19 24 c27 33 25 86 -6 116 l-24 25 -316 0 -316 0 -24 -25z"/> <path d="M560 2557 c-54 -27 -63 -94 -20 -137 19 -19 35 -20 475 -20 l456 0 24 25 c41 40 33 105 -16 130 -38 20 -880 22 -919 2z"/> <path d="M535 1995 c-16 -15 -25 -36 -25 -55 0 -19 9 -40 25 -55 l24 -25 534 0 c510 0 536 1 558 19 33 27 33 95 0 122 -22 18 -48 19 -558 19 l-534 0 -24 -25z"/> <path d="M535 1455 c-31 -30 -33 -83 -6 -116 l19 -24 386 0 c385 0 385 0 408 22 33 33 30 89 -6 119 l-27 24 -375 0 -375 0 -24 -25z"/> </g>
</svg>
