<svg version="1.0" xmlns="http://www.w3.org/2000/svg"  width="512.000000pt" height="512.000000pt" viewBox="0 0 512.000000 512.000000"  preserveAspectRatio="xMidYMid meet">
<g transform="translate(0.000000,512.000000) scale(0.100000,-0.100000)" stroke="none"> <path d="M1785 5111 c-31 -13 -64 -54 -75 -92 -6 -19 -10 -116 -10 -216 l0 -183 860 0 860 0 0 183 c0 100 -5 198 -10 218 -5 19 -24 48 -41 65 l-30 29 -767 2 c-422 1 -776 -2 -787 -6z"/> <path d="M730 4323 c-99 -34 -177 -115 -206 -211 -10 -32 -14 -105 -14 -244 l0 -198 2051 0 2050 0 -3 218 c-3 207 -4 219 -27 267 -32 63 -92 124 -156 155
l-50 25 -1800 2 c-1617 2 -1805 1 -1845 -14z"/> <path d="M840 3373 c0 -10 49 -737 110 -1615 119 -1748 108 -1635 177 -1699 68 -64 -42 -59 1437 -57 l1344 3 44 30 c49 35 85 92 93 150 3 22 55 722 115 1555 60 833 112 1545 116 1583 l6 67 -1721 0 c-1632 0 -1721 -1 -1721 -17z m1259 -468 c16 -8 40 -28 55 -46 l26 -31 -2 -1063 -3 -1063 -25 -27 c-54 -58 -108 -69 -170 -34 -75 43 -70 -45 -70 1129 0 1172 -5 1086 69 1129 43 24 81 27 120 6z m1039 -5 c18 -11 41 -34 52 -52 20 -32 20 -53 20 -1076 0 -1136 3 -1075 -56 -1121 -62 -49 -154 -31 -197 38 l-22 36 0 1045 0 1045 23 36 c40 65 118 87 180 49z"/> </g>
</svg>
