<svg version="1.0" xmlns="http://www.w3.org/2000/svg"  width="512.000000pt" height="512.000000pt" viewBox="0 0 512.000000 512.000000"  preserveAspectRatio="xMidYMid meet">
<g transform="translate(0.000000,512.000000) scale(0.100000,-0.100000)" stroke="none"> <path d="M3655 4663 c-89 -19 -197 -63 -277 -115 -46 -29 -430 -406 -1390 -1366 -730 -729 -1332 -1338 -1338 -1352 -14 -34 -170 -1131 -170 -1195 0 -95 62 -155 160 -155 88 0 1163 156 1196 173 16 9 624 611 1351 1339 955 956 1332
1340 1361 1386 55 85 97 190 117 291 26 124 17 307 -20 421 -94 297 -330 513 -627 574 -96 20 -269 20 -363 -1z m310 -328 c184 -48 333 -200 375 -384 21 -91 -4 -304 -39 -325 -4 -3 -159 147 -345 333 -378 378 -356 345 -244 375 71 19 180 20 253 1z m-480 -375 l120 -120 -1163 -1163 -1162 -1162 -122 123 -123 122 1160 1160 c638 638 1162 1160 1165 1160 3 0 59 -54 125 -120z m480 -480 l120 -120 -1163 -1163 -1162 -1162 -122 123 -123 122 1160 1160 c638 638 1162 1160 1165 1160 3 0 59 -54 125 -120z m-2573 -2561 c-10 -10 -541 -83 -548 -76 -6 5 61 514 72 546 3 10 88 -68 244 -224 132 -132 236 -242 232 -246z"/> </g>
</svg>
