<svg version="1.0" xmlns="http://www.w3.org/2000/svg"  width="512.000000pt" height="512.000000pt" viewBox="0 0 512.000000 512.000000"  preserveAspectRatio="xMidYMid meet"> <g transform="translate(0.000000,512.000000) scale(0.100000,-0.100000)" stroke="none">
<path d="M795 4681 c-206 -60 -366 -224 -419 -428 -14 -54 -16 -200 -16 -1233 0 -1301 -4 -1223 67 -1364 48 -96 153 -201 249 -249 143 -72 6 -67 1884 -67 1881 0 1744 -5 1885 68 96 49 201 155 248 248 71 141 67 63 67 1364 0 1301 4 1223 -67 1364 -48 96 -153 201 -249 249 -143 72 -5 67 -1890 66 -1588 0 -1703 -2 -1759 -18z m3490 -250 c82 -33 173 -124 206 -206 l24 -60 0 -1145 0 -1145
-24 -60 c-33 -82 -124 -173 -206 -206 l-60 -24 -1665 0 -1665 0 -60 24 c-82 33 -173 124 -206 206 l-24 60 0 1145 0 1145 23 57 c47 116 164 210 284 228 29 4 787 7 1683 6 l1630 -1 60 -24z"/> <path d="M2104 3866 c-58 -27 -115 -81 -139 -132 -32 -68 -36 -155 -33 -765 3 -666 0 -634 67 -718 66 -83 211 -124 313 -88 23 8 277 149 563 314 558 322 598 350 628 438 38 110 13 230 -62 304 -32 30 -209 138 -566 344 -286 164 -537 306 -559 313 -61 22 -153 18 -212 -10z m646 -524 c460 -266 515 -300 515 -322 0 -22 -55 -57 -515 -322 -283 -164 -523 -298 -533 -298 -10 0 -22 11 -27 26 -14 36 -13 1169 0 1195 6 10 18 19 28 19 9 0 249 -134 532 -298z"/> <path d="M1570 1211 c-109 -35 -199 -112 -252 -213 -32 -61 -33 -67 -33 -178
0 -111 1 -117 33 -178 42 -81 103 -142 184 -184 61 -32 67 -33 178 -33 111 0 117 1 178 33 81 42 142 103 184 184 32 61 33 67 33 178 0 111 -1 117 -33 178 -42 81 -104 142 -184 183 -57 30 -73 33 -163 36 -55 1 -111 -1 -125 -6z m188 -261 c130 -79 74 -280 -78 -280 -85 0 -150 65 -150 150 0 85 65 150 150 150 27 0 58 -8 78 -20z"/> <path d="M394 906 c-30 -30 -34 -40 -34 -86 0 -46 4 -56 34 -86 l34 -34 292 0 292 0 34 34 c30 30 34 40 34 86 0 46 -4 56 -34 86 l-34 34 -292 0 -292 0 -34 -34z"/> <path d="M2314 906 c-30 -30 -34 -40 -34 -86 0 -46 4 -56 34 -86 l34 -34 1172 0 1172 0 34 34 c30 30 34 40 34 86 0 46 -4 56 -34 86 l-34 34 -1172 0 -1172 0 -34 -34z"/> </g>
</svg>
