<svg version="1.0" xmlns="http://www.w3.org/2000/svg"  width="512.000000pt" height="512.000000pt" viewBox="0 0 512.000000 512.000000"  preserveAspectRatio="xMidYMid meet">
<g transform="translate(0.000000,512.000000) scale(0.100000,-0.100000)" stroke="none"> <path d="M980 5045 l0 -75 -215 0 -215 0 0 -225 0 -225 80 0 80 0 0 150 0 150 135 0 135 0 0 -75 0 -75 230 0 230 0 0 75 0 75 220 0 220 0 0 -75 0 -75 230 0 230 0 0 75 0 75 220 0 220 0 0 -75 0 -75 230 0 230 0 0 75 0 75 220 0 220 0 0 -75 0 -75 230 0 230 0 0 75 0 75 135 0 135 0 0 -2335 0 -2335 -150 0 -150 0 0 -75 0 -75 230 0 230 0 0 2485 0 2485 -215 0 -215 0 0 75 0 75 -230 0 -230 0 0 -75 0 -75 -220 0 -220 0 0 75 0 75 -230 0 -230 0 0 -75 0 -75 -220 0 -220 0 0 75 0 75 -230 0 -230 0 0 -75 0 -75 -220 0 -220 0 0 75 0 75 -230 0 -230 0 0 -75z m300 -150 l0 -75 -70 0 -70 0 0 75 0 75 70 0 70 0 0 -75z m900 0 l0 -75 -70 0 -70 0 0 75 0 75 70 0 70 0 0 -75z m900 0 l0 -75 -70 0 -70 0 0 75 0 75 70 0 70 0 0 -75z m900 0 l0 -75 -70 0 -70 0 0 75 0 75 70 0 70 0 0 -75z"/> <path d="M3810 4445 l0 -75 80 0 80 0 0 75 0 75 -80 0 -80 0 0 -75z"/> <path d="M4110 4445 l0 -75 80 0 80 0 0 75 0 75 -80 0 -80 0 0 -75z"/> <path d="M550 2185 l0 -2185 1710 0 1710 0 0 75 0 75 -1630 0 -1630 0 0 2110 0 2110 -80 0 -80 0 0 -2185z"/> <path d="M3557 3972 l-107 -107 0 93 0 92 -80 0 -80 0 0 -350 0 -350 80 0 80 0 0 100 0 101 117 -121 116 -121 59 58 58 57 -78 81 c-42 44 -104 108 -137 143 l-60 62 128 128 127 127 -58 58 -57 57 -108 -108z"/> <path d="M1350 3970 l0 -80 75 0 75 0 2 -272 3 -273 78 -3 77 -3 0 276 0 275 80 0 80 0 0 80 0 80 -235 0 -235 0 0 -80z"/> <path d="M2002 3733 c-66 -175 -123 -325 -126 -333 -5 -12 11 -22 66 -42 39 -15 74 -25 78 -23 4 2 19 38 35 80 l27 75 108 0 108 0 27 -72 c15 -40 31 -76 34 -80 5 -6 132 34 149 47 1 1 -53 150 -122 331 l-124 329 -69 3 -70 3 -121
-318z"/> <path d="M2781 4024 c-38 -19 -62 -40 -83 -73 -26 -41 -29 -53 -26 -113 5 -100 33 -130 178 -190 127 -53 145 -66 135 -97 -8 -28 -40 -43 -84 -43 -56 1 -92 19 -139 69 l-43 47 -54 -54 c-30 -30 -55 -58 -55 -63 0 -5 25 -33 55 -62 169 -166 463 -108 483 94 9 92 -46 180 -132 216 -177 73 -186 77 -186 96 0 39 76 52 133 23 18 -9 45 -27 60 -40 16 -13 34 -24 40 -24 12 1 97 101 97 114 0 15 -69 68 -120 93 -40 19 -75 27 -130 30 -66 4 -81 1 -129 -23z"/> <path d="M1540 2885 l-105 -105 -52 52 -53 53 -57 -58 -58 -57 105 -105 c58 -58 109 -105 115 -105 6 0 82 72 170 160 l160 160 -55 55 c-30 30 -57 55 -60 55 -3 0 -52 -47 -110 -105z"/> <path d="M1860 2650 l0 -80 995 0 995 0 0 80 0 80 -995 0 -995 0 0 -80z"/> <path d="M1540 2285 l-105 -105 -52 52 -53 53 -57 -58 -58 -57 105 -105 c58 -58 109 -105 115 -105 6 0 82 72 170 160 l160 160 -55 55 c-30 30 -57 55 -60 55 -3 0 -52 -47 -110 -105z"/> <path d="M1860 2050 l0 -80 995 0 995 0 0 80 0 80 -995 0 -995 0 0 -80z"/> <path d="M1540 1685 l-105 -105 -52 52 -53 53 -57 -58 -58 -57 105 -105 c58 -58 109 -105 115 -105 6 0 82 72 170 160 l160 160 -55 55 c-30 30 -57 55 -60 55 -3 0 -52 -47 -110 -105z"/> <path d="M1860 1450 l0 -80 995 0 995 0 0 80 0 80 -995 0 -995 0 0 -80z"/> <path d="M1540 1085 l-105 -105 -52 52 -53 53 -57 -58 -58 -57 105 -105 c58 -58 109 -105 115 -105 6 0 82 72 170 160 l160 160 -55 55 c-30 30 -57 55 -60 55 -3 0 -52 -47 -110 -105z"/> <path d="M1860 850 l0 -80 995 0 995 0 0 80 0 80 -995 0 -995 0 0 -80z"/> </g>
</svg>
