<svg version="1.0" xmlns="http://www.w3.org/2000/svg"  width="512.000000pt" height="512.000000pt" viewBox="0 0 512.000000 512.000000"  preserveAspectRatio="xMidYMid meet"> <g transform="translate(0.000000,512.000000) scale(0.100000,-0.100000)" stroke="none">
<path d="M2820 4818 c-77 -30 -169 -123 -198 -201 -20 -51 -22 -78 -22 -240 l0 -183 -72 -52 c-76 -54 -183 -152 -256 -234 l-42 -48 -35 39 c-20 22 -44 50 -55 64 -27 35 -173 156 -249 207 -89 59 -251 135 -346 160 -103 28 -314 38 -423 20 -412 -66 -695 -335 -809 -768 -37 -142 -44 -397 -15 -567 78 -453 281 -824 686 -1253 62 -65 67 -72 40 -65 -16 4 -69 8 -119 8 -76 0 -99 -4 -146 -26 -191 -90 -270 -312 -180 -505 52 -112 72 -125 603 -407 267 -142 511 -267 543 -278 32 -11 93 -25 137 -32 72 -10 114 -7 476 32 642 71 974 67 1455 -16 l97 -17 25 -42 c29 -50 75 -90 130 -115 36 -17 70 -19 315 -19 246 0 279 2 316 19 59 27 109 75 138 133 l26 52 0 636 0 636 -26 52 c-29 58 -79 106 -138 133 -37 17 -70 19 -316 19 -317 0 -329 -3 -412 -91 l-47 -50 -38 24 c-21 13 -77 45 -125 71 l-88 47 53 67 c113 143 137 184 137 236 0 90 -72 143 -159 118 -32 -10 -52 -31 -134 -139 -53 -71 -107 -140 -120 -154 l-24 -27 -113 34 c-241 73 -483 108 -715 102 -124 -3 -146 -6 -190 -28 -62 -30 -125 -94 -155 -157 -31 -65 -39 -200 -16 -269 36 -110 139 -200 257 -226 l58 -13 -277 -79 c-152 -44 -284 -81 -292 -83 -19 -5 -284 168 -430 280 -542 416 -868 875 -977 1377 -14 65 -18 127 -18 265 0 157 3 191 23 265 100 366 368 580 726 580 113 0 199 -17 296 -57 193 -79 364 -226 515 -442 55 -78 86 -101 137 -101 41 0 88 33 120 83 58 91 219 277 240 277 4 0 8 -223 8 -495 0 -482 1 -496 22 -552 29 -80 121 -172 201 -201 58 -22 61 -22 897 -22 836 0 839 0 897 22 80 29 172 121 201 201 22 58 22 61 22 897 0 836 0 839 -22 897 -29 80 -121 172 -201 201 -58 22 -61 22 -900 21 -832 0 -843 0 -897 -21z m1713 -241 c15 -9 35 -29 44 -44 17 -25 18 -79 18 -813 0 -734 -1 -788 -18 -813 -9 -15 -29 -35 -44 -44 -25 -17 -79 -18 -813 -18 -734 0 -788 1 -813 18 -66 43 -62 -6 -65 822 -2 412 0 769 3 792 7 52 45 99 88 112 19 6 352 9 802 8 718 -2 773 -3 798 -20z m-1783 -2632 c165 -11 369 -55 561 -120 129 -45 378 -167 484 -238 l80 -53 3 -410 2 -411 -111 19 c-211 33 -384 49 -629 55 -279 6 -390 -1 -875 -54 -333
-36 -342 -37 -407 -21 -48 12 -194 85 -539 268 -261 139 -482 259 -491 267 -74 66 -19 213 80 213 24 0 195 -65 504 -190 336 -136 480 -190 509 -190 21 0 295 73 607 162 524 150 569 164 600 194 27 28 32 39 32 82 0 51 -22 91 -59 112 -10 5 -151 39 -312 75 -261 57 -297 68 -316 90 -25 28 -30 82 -12 116 17 33 67 49 139 44 36 -3 103 -7 150 -10z m1830 -245 c20 -20 20 -33 20 -580 0 -547 0 -560 -20 -580 -19 -19 -33 -20 -220 -20 -187 0 -201 1 -220 20 -20 20 -20 33 -20 580 0 547 0 560 20 580 19 19 33 20 220 20 187 0 201 -1 220 -20z"/> <path d="M3634 4446 l-34 -34 0 -391 c0 -328 -2 -391 -14 -391 -24 0 -123 73 -156 114 -16 22 -38 64 -46 95 -15 50 -15 68 0 220 24 246 23 266 -18 307 l-34 34 -132 0 -132 0 -34 -34 c-30 -30 -34 -40 -34 -86 0 -46 4 -56 34 -86 27 -27 42 -34 71 -34 l38 0 -7 -52 c-27 -223 -15 -324 50 -449 67 -127 245 -262 374 -284 l40 -7 0 -170 0 -170 34 -34 c30 -30 40 -34 86 -34 46 0 56 4 86 34 l34 34 0 170 0 170 40 7 c129 22 307 157 374 284 65 125 77 226 50 449 l-7 52 38 0 c29 0 44 7 71 34 30 30 34 40 34 86 0 46 -4 56 -34 86 l-34 34 -132 0 -132 0 -34 -34 c-31 -31 -34 -39 -34 -92 0 -32 7 -130 16 -216 19 -180 13 -220 -38 -300 -29 -46 -134 -128 -164 -128 -12 0 -14 64 -14 391 l0 391 -34 34 c-30 30 -40 34 -86 34 -46 0 -56 -4 -86 -34z"/> <path d="M1234 3766 l-34 -34 0 -146 0 -146 -146 0 -146 0 -34 -34 c-30 -30 -34 -40 -34 -86 0 -46 4 -56 34 -86 l34 -34 146 0 146 0 0 -146 0 -146 34 -34 c30 -30 40 -34 86 -34 46 0 56 4 86 34 l34 34 0 146 0 146 146 0 146 0 34 34 c30 30 34 40 34 86 0 46 -4 56 -34 86 l-34 34 -146 0 -146 0 0 146 0 146 -34 34 c-30 30 -40 34 -86 34 -46 0 -56 -4 -86 -34z"/> </g>
</svg>
